<?xml version="1.0" encoding="utf-8"?>
<!-- Generator: Adobe Illustrator 22.0.0, SVG Export Plug-In . SVG Version: 6.00 Build 0)  -->
<svg version="1.1" xmlns="http://www.w3.org/2000/svg" xmlns:xlink="http://www.w3.org/1999/xlink" x="0px" y="0px"
	 viewBox="0 0 200 200" style="enable-background:new 0 0 200 200;" xml:space="preserve">
<style type="text/css">
	.st0{fill:#FFFFFF;}
	.st1{fill:none;stroke:#0583C0;stroke-width:5;stroke-miterlimit:10;}
	.st2{fill:#0583C0;}
</style>
<g id="Layer_1">
	<polygon class="st0" points="113.3,173.4 65.1,139.1 68.7,86.8 116.9,121.1 	"/>
	<polygon class="st0" points="152.7,116.8 99.8,143.3 95.3,195.5 148.2,169 	"/>
	<polygon class="st0" points="97.7,195.9 49.5,161.6 53.1,109.4 101.3,143.7 	"/>
	
		<rect x="75.7" y="75.8" transform="matrix(0.6007 0.7995 -0.7995 0.6007 126.1338 -45.3218)" class="st0" width="65.4" height="55.6"/>
	
		<rect x="115.6" y="51.5" transform="matrix(0.4706 0.8824 -0.8824 0.4706 148.5294 -88.8847)" class="st0" width="65.4" height="55.6"/>
	
		<rect x="127.8" y="41.1" transform="matrix(0.9961 -8.797448e-02 8.797448e-02 0.9961 -5.4414 14.3851)" class="st0" width="65.4" height="55.6"/>
	
		<rect x="101.7" y="22" transform="matrix(0.6007 0.7995 -0.7995 0.6007 93.5343 -87.5921)" class="st0" width="65.4" height="55.6"/>
	<rect x="117.4" y="16.8" transform="matrix(0.8139 0.581 -0.581 0.8139 53.86 -78.8802)" class="st0" width="65.4" height="55.6"/>
	
		<rect x="38.1" y="22.5" transform="matrix(0.8343 0.5513 -0.5513 0.8343 40.6721 -34.6629)" class="st0" width="79.8" height="55.6"/>
	
		<rect x="29.4" y="71.1" transform="matrix(0.8343 0.5513 -0.5513 0.8343 66.0103 -21.8344)" class="st0" width="79.8" height="55.6"/>
	<rect x="10.4" y="41.6" class="st0" width="79.8" height="55.6"/>
	
		<rect x="15.6" y="27.7" transform="matrix(0.5394 0.8421 -0.8421 0.5394 72.3087 -21.1138)" class="st0" width="79.8" height="55.6"/>
	<polygon class="st1" points="60.3,5.5 8.9,34.8 8.3,94.5 48.3,118.2 47.8,165.8 98.7,196.1 150.1,166.7 150.6,118.3 192.4,94.4 
		193,36.6 142.1,6.3 101,29.7 	"/>
	<line class="st1" x1="100.6" y1="29.5" x2="151.7" y2="60.3"/>
	<line class="st1" x1="192.5" y1="36.9" x2="151.7" y2="60.3"/>
	<line class="st1" x1="150.5" y1="120.2" x2="150.5" y2="58.6"/>
	<line class="st1" x1="8.6" y1="35.2" x2="49.4" y2="58.6"/>
	<line class="st1" x1="48.2" y1="56" x2="48.2" y2="116.7"/>
	<line class="st1" x1="100.6" y1="30" x2="48.5" y2="59.5"/>
	<line class="st1" x1="48.5" y1="118.4" x2="98.8" y2="146.2"/>
	<line class="st1" x1="150.9" y1="118.4" x2="98.8" y2="146.2"/>
	<line class="st1" x1="98.8" y1="196.5" x2="98.8" y2="146.2"/>
	<line class="st1" x1="100.6" y1="30" x2="100.6" y2="89.8"/>
	<line class="st1" x1="48.5" y1="116.7" x2="100.6" y2="87.2"/>
	<line class="st1" x1="100.6" y1="87.2" x2="152.6" y2="116.7"/>
</g>
<g id="Layer_2">
	<g>
		<path class="st2" d="M74.2,90.8c-8.1,3-14.3-2.8-13.8-13C61,67.7,68,56.9,76.1,53.9c5.6-2.1,10.1,0.1,12.3,4.7
			c-2.6,2.5-2.8,2.8-5.6,5.5c-1.3-2.6-3.9-3.7-7-2.6c-4.8,1.8-8.9,8.1-9.2,14c-0.3,6,3.3,9.4,8.1,7.6c3.3-1.2,6.2-4.4,7.9-8.5
			c2.7,0.8,2.7,0.9,5.3,1.5C85,83,79.9,88.7,74.2,90.8z"/>
	</g>
	<g>
		<path class="st2" d="M129.1,79.6l8.8,17l-8.5-4.6l-7.9-16.2l-3.4-1.9l0,11.8l-7-3.8l0-33l14.2,7.8c7.9,4.3,11,11.2,11,16.6
			c0,4.5-2.3,7.8-7.5,6.1L129.1,79.6z M118.1,58.5l0,9.9l5.4,2.9c3.3,1.8,6,2.5,6-1.7c0-4.3-2.7-6.4-6-8.2L118.1,58.5z"/>
	</g>
</g>
</svg>
